{"title":"Stone.LIMITED.720p.BRRip.x264.Feel-Free","uid":6075042,"size":2030365789,"categoryP":"video","categoryS":"hd___movies","magnet":"?xt=urn:btih:b8604346bd15d726fedbef8209ae8dc274ba8f3b&amp;dn=Stone.LIMITED.720p.BRRip.x264.Feel-Free&amp;tr=udp%3A%2F%2Ftracker.openbittorrent.com%3A80&amp;tr=udp%3A%2F%2Fopen.demonii.com%3A1337&amp;tr=udp%3A%2F%2Ftracker.coppersurfer.tk%3A6969&amp;tr=udp%3A%2F%2Fexodus.desync.com%3A6969","seeders":0,"leechers":0,"uploader":"hiest","files":10,"time":1293791364,"description":"Genre:Drama | Thriller\nLanguage:English\nIMDb:http://www.imdb.com/title/tt1423995/\nSource:Bluray.x264-CBGB\n\n\nFormat : Matroska\nFile size : 1.89 GiB\nDuration : 1h 45mn\nOverall bit rate : 2 570 Kbps\n\n\nVideo\nFormat settings, CABAC : Yes\nFormat settings, ReFrames : 4 frames\nCodec ID : V_MPEG4/ISO/AVC\nDuration : 1h 45mn\nBit rate : 2 200 Kbps\nWidth : 1 280 pixels\nHeight : 528 pixels\nDisplay aspect ratio : 2.40:1\nFrame rate mode : Variable\nFrame rate : 23.976 fps\nColor space : YUV\nChroma subsampling : 4:2:0\nBit depth : 8 bits\nScan type : Progressive\nBits/(Pixel*Frame) : 0.136\nStream size : 1.57 GiB (83%)\nWriting library : x264 \n\n\nAudio\nID : 2\nFormat : AC-3\nFormat/Info : Audio Coding 3\nMode extension : CM (complete main)\nCodec ID : A_AC3\nDuration : 1h 45mn\nBit rate mode : Constant\nBit rate : 384 Kbps\nChannel(s) : 6 channels\nChannel positions : Front: L C R, Side: L R, LFE\nSampling rate : 48.0 KHz\nBit depth : 16 bits\nVideo delay : -1mn 5s\nStream size : 288 MiB (15%)\nLanguage : English\n\n\n\nPlot:\nA convicted arsonist looks to manipulate a parole officer into a plan to secure his parole by placing his beautiful wife in the lawman's path.\n\n\n\n\n================================== &lt;a href=&quot;\nhttp://thepiratebay.se/user/hiest&quot; rel=&quot;nofollow&quot; target=&quot;_NEW&quot;&gt;\nhttp://thepiratebay.se/user/hiest&lt;/a&gt;\n==================================","torrent":{"xt":"urn:btih:b8604346bd15d726fedbef8209ae8dc274ba8f3b","amp;dn":"Stone.LIMITED.720p.BRRip.x264.Feel-Free","amp;tr":["udp%3A%2F%2Ftracker.openbittorrent.com%3A80","udp%3A%2F%2Fopen.demonii.com%3A1337","udp%3A%2F%2Ftracker.coppersurfer.tk%3A6969","udp%3A%2F%2Fexodus.desync.com%3A6969"],"infoHash":"b8604346bd15d726fedbef8209ae8dc274ba8f3b","infoHashBuffer":{"type":"Buffer","data":[184,96,67,70,189,21,215,38,254,219,239,130,9,174,141,194,116,186,143,59]},"announce":[],"urlList":[]}}